PathFileType	4	(X/Y/Z)	OpenSim_Sub07_CSStiffKnee_Accel.trc
DataRate	CameraRate	NumFrames	NumMarkers	Units	OrigDataRate	OrigDataStartFrame	OrigNumFrames
100	100	13	8	m	100	3368	6734
Frame#	Time	torso_imu_offset_imu	pelvis_imu_offset_imu	tibia_r_imu_offset_imu	femur_r_imu_offset_imu	tibia_l_imu_offset_imu	femur_l_imu_offset_imu	toes_r_imu_offset_imu	toes_l_imu_offset_imu
				X1	Y1	Z1	X2	Y2	Z2	X3	Y3	Z3	X4	Y4	Z4	X5	Y5	Z5	X6	Y6	Z6	X7	Y7	Z7	X8		Y8	Z8	

3368	33.67000000	-8.59829881	0.05908757	6.50273283	9.22913619	0.11373587	2.90047542	6.90656776	7.94745708	-1.98044138	8.61602073	-0.10568139	1.51210036	9.89022097	-0.67644222	-0.14961131	9.05535376	3.14701189	-1.89014703	6.84320081	2.70558594	8.11535666	5.29675662	1.69950151	10.72778611
3369	33.68000000	-8.43344358	0.09997366	6.33848879	9.37477310	0.10562888	2.78157819	7.52574518	8.41123514	-2.11246148	8.52302427	0.10782913	1.67569231	9.83790243	-0.88534207	0.02335875	9.06379228	3.06765400	-2.02574032	7.02805671	3.14159160	8.45756966	5.15091622	1.76300847	10.97707220
3370	33.69000000	-8.51454666	0.12387653	6.66868057	9.38900307	0.14234138	2.68129246	7.87082711	8.09786901	-2.89237696	8.46642285	0.27802722	1.69931230	9.91230954	-0.99502100	0.02369840	9.08596799	2.82112337	-2.07402402	7.63605032	4.22268073	9.11769566	5.04638486	1.68941615	11.04559812
3371	33.70000000	-8.67635485	0.12958676	6.75766082	9.26042239	0.01048295	2.66356546	7.89117668	7.57935057	-3.70320977	8.35271329	0.32906029	1.67619119	9.90485391	-1.27189827	-0.02781180	9.26087268	2.24099689	-2.10862733	9.63456433	5.67886858	10.18151192	5.45583990	1.50685777	10.86404975
3372	33.71000000	-8.73930604	0.13528860	6.77967093	9.09128988	-0.08552543	2.61834915	8.08632002	6.84506743	-3.44156449	7.97261645	0.12316592	1.48309094	10.07717517	-1.39848699	0.22304349	9.51260174	1.81826504	-2.22052297	12.40175257	5.83954098	10.95740344	5.29042757	1.41749417	10.89402998
3373	33.72000000	-8.67617901	0.07692214	6.79408606	8.95123685	-0.17205155	2.59574747	8.68822991	6.22050102	-3.20689942	7.57561912	-0.43046891	1.28737134	10.19800417	-1.49244419	0.21451928	9.59408970	1.89398857	-2.27540119	13.61711789	5.21313917	10.24571082	5.29983062	1.55294594	10.96053119
3374	33.73000000	-8.61318560	0.02920468	6.73139477	8.99910941	-0.19394924	2.52102715	9.46269575	5.36116531	-3.00149023	7.39009455	-1.14337930	1.17919529	10.16191334	-1.41507170	0.22414748	9.62207315	1.61643228	-2.27020271	13.33529986	4.66586847	8.83166671	4.73931897	1.49186886	11.18574989
3375	33.74000000	-8.69666080	-0.01832226	6.60946538	9.13182356	-0.23128883	2.37844665	9.97059272	4.42906847	-2.15709946	7.45365471	-1.96252640	1.12035864	10.06365254	-1.18719477	0.29348585	9.59208499	1.57213324	-2.20914505	13.83005512	3.60577348	8.10057894	5.23652124	1.60076243	10.94628901
3376	33.75000000	-8.78086266	-0.07206162	6.57327811	9.28704599	-0.22676003	2.30354913	9.97326868	3.95135475	-1.60546447	7.70202474	-2.98086584	1.07722512	10.11457001	-0.95522506	0.32156322	9.64469445	1.42612670	-2.04986040	15.21690892	2.24087588	7.88398682	5.43513153	1.52847963	10.90470655
3377	33.76000000	-8.75141784	-0.11749324	6.63021463	9.44325386	-0.24148978	2.30574029	9.76495927	3.89427703	-1.09857519	7.99589438	-4.22075807	0.91432625	10.20059517	-0.94686594	0.35510104	9.62793039	1.63606135	-2.05123537	16.15798326	0.76556967	7.49793723	5.50234052	1.56454491	10.82369037
3378	33.77000000	-8.74468809	-0.19765405	6.71533383	9.50099231	-0.24024493	2.39420702	9.39965767	3.91963564	-0.74069146	8.26886328	-5.84810477	0.80076854	10.08389910	-1.09064054	0.23248977	9.50920276	1.50082289	-1.75826624	16.15555132	-0.69588518	6.81579438	4.88603160	1.61377255	11.10105411
3379	33.78000000	-8.77892131	-0.23527598	6.80170225	9.43489627	-0.22682373	2.43588280	9.40325444	3.65041387	-0.34963713	8.62556700	-7.45666209	0.68449646	9.87864797	-1.14839248	0.09854850	9.42821716	1.49782766	-1.57182630	15.52803149	-1.46999709	5.66681933	5.24333573	1.72698093	10.93438234
3380	33.79000000	-8.78524851	-0.29307180	6.77091649	9.30534102	-0.23692851	2.40914587	9.09679696	3.27051205	-0.09025852	8.88191610	-8.55426710	0.60192564	9.85459823	-0.96213648	0.07128642	9.33948023	1.51610814	-1.46443626	14.44078929	-1.41396535	3.81319252	5.73303320	1.63615223	10.65488219
